<svg width="184" height="172" viewBox="0 0 184 172" fill="none" xmlns="http://www.w3.org/2000/svg">
<g opacity="0.5">
<path opacity="0.5" d="M37.1574 171.149C53.4162 171.149 66.5966 167.854 66.5966 163.789C66.5966 159.725 53.4162 156.429 37.1574 156.429C20.8986 156.429 7.71826 159.725 7.71826 163.789C7.71826 167.854 20.8986 171.149 37.1574 171.149Z" fill="#1B70E5"/>
<path opacity="0.5" d="M98.5576 159.525C138.242 159.525 170.413 154.755 170.413 148.872C170.413 142.989 138.242 138.22 98.5576 138.22C58.8729 138.22 26.7021 142.989 26.7021 148.872C26.7021 154.755 58.8729 159.525 98.5576 159.525Z" fill="#1B70E5"/>
</g>
<path d="M56.1576 27.4243L92.764 21.0884L127.82 27.7859L161.285 22.2907V145.275L127.872 151.381L92.764 144.965L55.6222 150.808L28.104 144.791V22.7698L56.1576 27.4243Z" fill="#1B70E5" stroke="#263238" stroke-width="0.244499" stroke-miterlimit="10"/>
<path d="M37.7173 39.2645L47.2798 40.8614C47.3141 40.866 47.3489 40.866 47.3832 40.8614C47.5126 40.8605 47.637 40.8106 47.7312 40.7218C47.8254 40.6329 47.8823 40.5116 47.8907 40.3824C47.899 40.2532 47.8581 40.1256 47.7761 40.0254C47.6941 39.9251 47.5772 39.8597 47.4489 39.8422L37.8817 38.2735C37.8141 38.2597 37.7445 38.2598 37.677 38.2736C37.6094 38.2874 37.5454 38.3147 37.4887 38.3538C37.4319 38.393 37.3837 38.4432 37.3469 38.5015C37.31 38.5597 37.2853 38.6248 37.2742 38.6929C37.2632 38.7609 37.2659 38.8305 37.2824 38.8974C37.2989 38.9643 37.3287 39.0273 37.37 39.0824C37.4114 39.1375 37.4635 39.1837 37.5232 39.2183C37.5828 39.2528 37.6488 39.2749 37.7173 39.2833V39.2645Z" fill="#263238"/>
<path d="M53.489 101.013L48.3555 98.2463L39.6665 118.856L55.9031 126.812V101.482C55.0694 101.576 54.227 101.412 53.489 101.013Z" fill="#263238"/>
<path d="M39.2206 93.3147L32.0581 110.726V131.617L46.5382 97.2647L39.2206 93.3147Z" fill="#263238"/>
<path d="M32.0581 136.905V141.311L55.9035 147.177V127.958L39.2676 119.8L32.0581 136.905Z" fill="#263238"/>
<path d="M32.0581 87.1197L54.4616 99.2091C54.9045 99.4415 55.4158 99.5081 55.9035 99.397V72.7195L32.0581 61.3816V87.1197Z" fill="#263238"/>
<path d="M38.1492 45.2859C38.0817 45.2722 38.0121 45.2722 37.9445 45.286C37.877 45.2998 37.8129 45.3271 37.7562 45.3663C37.6995 45.4055 37.6513 45.4557 37.6144 45.5139C37.5776 45.5722 37.5529 45.6373 37.5418 45.7053C37.5307 45.7734 37.5335 45.8429 37.55 45.9099C37.5664 45.9768 37.5963 46.0397 37.6376 46.0949C37.679 46.15 37.7311 46.1962 37.7907 46.2307C37.8504 46.2652 37.9164 46.2873 37.9848 46.2957L47.5474 47.8691C47.5817 47.8737 47.6165 47.8737 47.6507 47.8691C47.7802 47.8683 47.9046 47.8184 47.9988 47.7295C48.0929 47.6406 48.1499 47.5194 48.1583 47.3902C48.1666 47.2609 48.1257 47.1334 48.0437 47.0331C47.9617 46.9329 47.8448 46.8674 47.7165 46.8499L38.1492 45.2859Z" fill="#263238"/>
<path d="M38.0187 41.768C37.9521 41.7569 37.8839 41.759 37.8182 41.7742C37.7524 41.7895 37.6902 41.8175 37.6353 41.8568C37.5803 41.896 37.5336 41.9457 37.4979 42.003C37.4621 42.0603 37.438 42.1241 37.4269 42.1907C37.4158 42.2573 37.4179 42.3255 37.4332 42.3912C37.4484 42.457 37.4765 42.5192 37.5157 42.5741C37.555 42.6291 37.6046 42.6758 37.6619 42.7115C37.7192 42.7473 37.783 42.7714 37.8496 42.7825L47.4169 44.3559H47.5202C47.6493 44.3539 47.773 44.3033 47.8663 44.214C47.9597 44.1248 48.0158 44.0035 48.0235 43.8746C48.0313 43.7457 47.99 43.6186 47.908 43.5189C47.8259 43.4191 47.7092 43.354 47.5813 43.3367L38.0187 41.768Z" fill="#263238"/>
<path d="M130.346 46.0279C129.629 46.5093 128.87 46.9243 128.078 47.2679V77.8343L143.816 36.9163L130.346 46.0279Z" fill="#263238"/>
<path d="M142.393 72.2499L152.412 48.1462L147.334 33.4971L135.513 64.2372L142.393 72.2499Z" fill="#263238"/>
<path d="M144.46 35.2256L147.278 27.9221L128.078 31.4682V46.1596C128.665 45.8774 129.232 45.5541 129.773 45.192L144.46 35.2256Z" fill="#263238"/>
<path d="M32.0581 89.4539V105.329L37.403 92.333L32.0581 89.4539Z" fill="#263238"/>
<path d="M62.6763 92.7888L59.0786 99.3643C58.801 99.8697 58.4206 100.311 57.962 100.661C57.5033 101.01 56.9765 101.26 56.4155 101.393V126.436L77.8843 108.171L62.6763 92.7888Z" fill="#263238"/>
<path d="M107.605 103.413C107.96 103.465 108.323 103.424 108.658 103.293C108.992 103.162 109.287 102.946 109.512 102.666L125.143 83.4094C122.639 78.0504 118.948 74.4621 114.166 72.7478C106.041 69.8311 96.9294 73.0813 94.1489 74.2273L105.98 102.154C106.117 102.488 106.339 102.78 106.625 103C106.91 103.221 107.248 103.363 107.605 103.413Z" fill="#263238"/>
<path d="M99.0697 132.476C102.733 130.522 122.084 120.222 122.304 120.114C123.305 119.583 123.854 118.996 123.986 118.329C124.305 116.723 122.361 114.375 120.642 112.304C119.148 110.5 117.739 108.795 117.392 107.208C116.452 102.887 119.134 101.13 121.29 99.7163C122.229 99.0963 123.136 98.5092 123.638 97.7859C124.606 96.3769 122.91 93.0187 121.609 91.0508L111.126 103.962C110.741 104.439 110.253 104.823 109.7 105.087C109.146 105.352 108.541 105.489 107.928 105.489C107.73 105.489 107.532 105.474 107.336 105.446C106.628 105.351 105.958 105.072 105.392 104.637C104.826 104.202 104.384 103.626 104.109 102.966L93.0156 76.7915V120.551L93.7201 121.265L99.0697 132.476Z" fill="#263238"/>
<path d="M76.7663 58.0046C76.4754 59.6238 76.0689 61.22 75.5499 62.7812C74.0281 66.9566 58.4208 72.1418 56.4106 72.7993V99.2232C56.7757 99.0342 57.0752 98.7396 57.2701 98.3777L76.9965 62.3491C77.3156 61.769 77.7691 61.274 78.3189 60.9053C78.8688 60.5366 79.499 60.3051 80.1567 60.2301C80.8145 60.1551 81.4806 60.2389 82.0993 60.4744C82.718 60.7098 83.2713 61.0902 83.7128 61.5835L92.4957 71.4466V39.9221C89.114 41.0024 85.723 42.2 82.966 44.1116C78.9785 46.8733 77.701 53.3078 76.7663 58.0046Z" fill="#263238"/>
<path d="M152.219 83.6959L157.329 89.6467V72.2922L152.303 83.7335L152.219 83.6959Z" fill="#263238"/>
<path d="M138.105 115.54C137.935 116.097 137.939 116.692 138.116 117.247C138.293 117.801 138.635 118.289 139.096 118.644L150.415 127.408C152.236 128.832 153.459 130.884 153.844 133.162C154.229 135.441 153.748 137.781 152.496 139.723L150.34 143.011L147.555 143.523L150.777 138.587C151.75 137.078 152.123 135.26 151.824 133.49C151.525 131.72 150.576 130.125 149.161 129.019L137.837 120.283C137.043 119.665 136.456 118.819 136.155 117.858C135.855 116.897 135.855 115.867 136.156 114.906L147.813 81.7232L134.662 66.4165L128.425 82.6625L128.078 83.0899V147.313L157.324 141.766V92.7981L149.34 83.5173L138.105 115.54Z" fill="#263238"/>
<path d="M115.837 46.8312L98.7785 37.8369C97.2756 38.4052 95.6552 38.9125 93.9878 39.4385L93.0156 39.7438V72.0104L93.3256 72.358C96.2846 71.1039 105.922 67.6142 114.865 70.8174C119.914 72.6257 123.854 76.2703 126.607 81.6575L126.644 81.6152L127.584 79.1776V47.4981C125.694 48.2393 123.666 48.5634 121.64 48.4483C119.613 48.3332 117.635 47.7816 115.842 46.8312H115.837Z" fill="#263238"/>
<path d="M93.0156 37.5738L93.3726 37.4611C96.5945 36.4466 99.638 35.4932 101.775 34.0935C103.677 32.8442 105.697 30.2939 107.411 27.7201L109.6 28.1381C107.665 31.1393 105.255 34.2861 102.907 35.8313C101.994 36.4136 101.033 36.9149 100.033 37.3296L116.326 45.9246C118.046 46.8354 119.949 47.3503 121.894 47.4315C123.84 47.5128 125.779 47.1584 127.57 46.3943V31.4681L93.025 24.9866L93.0156 37.5738Z" fill="#263238"/>
<path d="M143.891 73.9969L150.8 82.0424L157.328 67.1867V62.3349L153.421 51.0627L143.891 73.9969Z" fill="#263238"/>
<path d="M149.641 27.504L148.392 30.7448L154.526 47.9818L157.329 56.0649V26.0903L149.641 27.504Z" fill="#263238"/>
<path d="M56.4106 70.5873C62.9861 68.0886 72.7694 63.9461 73.6712 61.9359C74.061 61.0717 74.3804 59.4654 74.7467 57.6055C75.7471 52.5659 77.0951 45.6617 81.7918 42.4116C84.9668 40.2088 88.7618 38.9313 92.4957 37.7524V25.0195L56.4106 30.9985V70.5873Z" fill="#263238"/>
<path d="M125.33 98.9463C124.602 100.003 123.489 100.731 122.418 101.436C120.15 102.92 118.788 103.972 119.398 106.766C119.642 107.87 120.957 109.458 122.216 110.993C124.325 113.539 126.5 116.16 125.974 118.729C125.72 120.021 124.799 121.077 123.245 121.927L99.9536 134.327L104.298 143.439L127.453 147.426H127.561V83.7195L122.958 89.3885C123.907 90.727 127.364 95.9874 125.33 98.9463Z" fill="#263238"/>
<path d="M78.6076 108.898L62.6575 122.467L74.3853 144.382L73.3097 144.551L61.8591 123.148L56.4155 127.779V147.224L92.5053 141.531V123.482L92.0168 122.463L78.6076 108.898Z" fill="#263238"/>
<path d="M32.0581 59.1178L55.9035 70.4511V30.8998L32.0581 26.5413V59.1178ZM42.1561 30.6744C46.0873 30.5241 49.4783 35.7938 49.7319 42.4444C49.9856 49.095 47.0172 54.6043 43.072 54.7546C39.1267 54.9049 35.7497 49.6351 35.4961 42.9845C35.2425 36.334 38.2249 30.8247 42.1561 30.6744Z" fill="#263238"/>
<path d="M82.1858 62.9361C81.964 62.6876 81.6859 62.496 81.3747 62.3773C81.0636 62.2586 80.7284 62.2164 80.3976 62.2541C80.0667 62.2919 79.7497 62.4085 79.4732 62.5942C79.1967 62.7798 78.9689 63.0292 78.8088 63.3212L63.7041 90.9005L92.5045 120.02V75.5797L91.6356 73.5648L82.1858 62.9361Z" fill="#263238"/>
<path d="M93.0156 124.562V141.499L101.822 143.016L93.0156 124.562Z" fill="#263238"/>
<path d="M109.71 57.5115C108.316 57.5115 106.979 58.0652 105.993 59.0508C105.008 60.0364 104.454 61.3732 104.454 62.7671C104.454 65.6697 109.71 71.1555 109.71 71.1555C109.71 71.1555 114.965 65.6697 114.965 62.7671C114.965 61.3732 114.412 60.0364 113.426 59.0508C112.44 58.0652 111.104 57.5115 109.71 57.5115ZM109.71 64.6458C109.271 64.6458 108.843 64.5158 108.478 64.2722C108.114 64.0286 107.829 63.6824 107.662 63.2773C107.494 62.8722 107.45 62.4265 107.535 61.9965C107.621 61.5664 107.832 61.1714 108.142 60.8614C108.452 60.5514 108.847 60.3402 109.277 60.2547C109.707 60.1692 110.153 60.2131 110.558 60.3809C110.963 60.5486 111.309 60.8328 111.553 61.1973C111.797 61.5619 111.927 61.9905 111.927 62.429C111.927 62.7201 111.869 63.0084 111.758 63.2773C111.646 63.5463 111.483 63.7907 111.277 63.9965C111.071 64.2024 110.827 64.3657 110.558 64.4771C110.289 64.5885 110.001 64.6458 109.71 64.6458Z" fill="white"/>
<path d="M46.5109 80.676C46.5109 80.676 47.3939 82.7942 48.1594 83.2075C48.925 83.6208 49.5685 83.9684 50.3951 82.7379C51.2217 81.5073 49.6295 79.5018 48.4506 79.1495C47.2718 78.7973 46.0788 78.9711 46.5109 80.676Z" fill="white" stroke="#263238" stroke-width="0.183374" stroke-linecap="round" stroke-linejoin="round"/>
<path d="M45.1994 78.1113C45.1994 78.1113 44.5982 78.7172 45.1149 80.1826C45.6315 81.648 47.0969 81.7372 47.3599 81.3051C47.6229 80.873 48.9098 81.911 48.9098 81.911L49.6002 85.8797L53.4844 85.5322L53.5925 81.7231L45.1994 78.1113Z" fill="white" stroke="#263238" stroke-width="0.183374" stroke-linecap="round" stroke-linejoin="round"/>
<path d="M38.9864 105.38C38.9864 105.38 38.9019 109.955 38.9019 113.666C38.9019 117.376 40.8839 122.209 40.8839 122.209C40.8839 122.209 40.7993 124.022 41.316 125.144C41.8326 126.267 43.7348 128.432 44.2514 128.338C44.7681 128.244 44.9419 126.783 45.0264 124.971C45.1109 123.158 42.7861 121.683 42.7861 119.879C42.7861 118.076 43.561 114.013 43.9931 111.683C44.4252 109.354 44.336 105.296 44.336 105.296L39.0756 105.038L38.9864 105.38Z" fill="white"/>
<g style="mix-blend-mode:multiply" opacity="0.5">
<path d="M44.3356 105.296L39.0752 105.038L38.986 105.38C38.986 105.38 38.986 106.226 38.9531 107.48C39.5833 107.966 40.2984 108.331 41.062 108.555C40.9154 111.415 41.0728 114.282 41.5316 117.108C42.2925 121.575 42.8608 122.143 42.3864 123.284C41.9121 124.426 42.7904 126.342 43.6264 126.812C44.1665 127.112 44.6691 125.778 45.0354 124.637C44.8428 122.979 42.8044 121.584 42.8044 119.889C42.8044 118.076 43.5794 114.022 44.0115 111.693C44.4436 109.363 44.3356 105.296 44.3356 105.296Z" fill="#1B70E5"/>
</g>
<path d="M38.9864 105.38C38.9864 105.38 38.9019 109.955 38.9019 113.666C38.9019 117.376 40.8839 122.209 40.8839 122.209C40.8839 122.209 40.7993 124.022 41.316 125.144C41.8326 126.267 43.7348 128.432 44.2514 128.338C44.7681 128.244 44.9419 126.783 45.0264 124.971C45.1109 123.158 42.7861 121.683 42.7861 119.879C42.7861 118.076 43.561 114.013 43.9931 111.683C44.4252 109.354 44.336 105.296 44.336 105.296L39.0756 105.038L38.9864 105.38Z" stroke="#263238" stroke-width="0.183374" stroke-linecap="round" stroke-linejoin="round"/>
<path d="M64.3438 84.2829L69.1485 81.3474L76.5365 72.8933C76.9905 71.8836 77.5578 70.9287 78.2273 70.0471C79.0305 69.1547 81.4305 67.0177 81.6982 67.4639C81.9659 67.9101 82.1444 67.9993 81.6982 68.4455L80.1858 69.9578C80.1858 69.9578 81.8767 71.3668 81.9659 71.8365C82.0497 72.1516 82.0692 72.4803 82.0232 72.8031C81.9772 73.1259 81.8667 73.4361 81.6982 73.7152C81.2567 74.3352 80.989 73.5367 80.989 73.5367C80.6651 74.1899 80.2438 74.7901 79.7397 75.3168C79.3961 75.6292 78.958 75.8176 78.495 75.8522L77.6919 76.026C77.6919 76.026 75.2026 81.1032 74.0425 82.6015C72.8824 84.0997 72.1638 84.9169 71.1963 85.4477C70.2288 85.9784 64.3438 89.2755 64.3438 89.2755V84.2829Z" fill="white"/>
<g style="mix-blend-mode:multiply" opacity="0.5">
<path d="M81.2422 72.3909C80.1666 72.3909 80.6551 73.3678 79.4856 74.1474C78.7046 74.6453 77.8458 75.0089 76.9447 75.223C76.9447 75.223 74.7983 79.9197 71.4777 82.0568C68.1571 84.1938 68.1618 83.8133 68.1618 83.8133L67.0439 87.7539L71.1959 85.4384C72.1728 84.9077 72.8867 84.1045 74.0421 82.5922C75.1975 81.0798 77.6915 76.0168 77.6915 76.0168L78.4946 75.843C78.9576 75.8084 79.3957 75.6199 79.7392 75.3075C80.2434 74.7809 80.6647 74.1807 80.9886 73.5275C80.9886 73.5275 81.2563 74.3259 81.6978 73.706C81.8313 73.5151 81.9255 73.2995 81.9749 73.0719C81.8481 72.6774 81.6273 72.3909 81.2422 72.3909Z" fill="#1B70E5"/>
</g>
<path d="M64.3438 84.2829L69.1485 81.3474L76.5365 72.8933C76.9905 71.8836 77.5578 70.9287 78.2273 70.0471C79.0305 69.1547 81.4305 67.0177 81.6982 67.4639C81.9659 67.9101 82.1444 67.9993 81.6982 68.4455L80.1858 69.9578C80.1858 69.9578 81.8767 71.3668 81.9659 71.8365C82.0497 72.1516 82.0692 72.4803 82.0232 72.8031C81.9772 73.1259 81.8667 73.4361 81.6982 73.7152C81.2567 74.3352 80.989 73.5367 80.989 73.5367C80.6651 74.1899 80.2438 74.7901 79.7397 75.3168C79.3961 75.6292 78.958 75.8176 78.495 75.8522L77.6919 76.026C77.6919 76.026 75.2026 81.1032 74.0425 82.6015C72.8824 84.0997 72.1638 84.9169 71.1963 85.4477C70.2288 85.9784 64.3438 89.2755 64.3438 89.2755V84.2829Z" stroke="#263238" stroke-width="0.183374" stroke-linecap="round" stroke-linejoin="round"/>
<path d="M49.197 160.943C49.197 160.943 50.3571 161.234 50.0659 162.099C49.7747 162.963 48.8495 164.583 48.098 164.527C47.3465 164.47 49.197 160.943 49.197 160.943Z" fill="#1B70E5" stroke="#263238" stroke-width="0.183374" stroke-linecap="round" stroke-linejoin="round"/>
<path d="M44.9413 125.577C44.9413 125.577 45.1996 132.655 45.1996 133.688C45.1996 134.721 43.645 138.779 43.645 140.85C43.645 142.922 45.1996 158.271 45.1996 160.858C45.1996 163.446 44.9413 164.311 46.3222 164.574C47.703 164.837 48.5672 164.916 49.0838 163.103C49.6005 161.291 49.0838 149.741 49.6005 144.908C50.1171 140.075 51.0706 134.895 51.1551 131.964C51.2322 130.045 51.4917 128.137 51.9301 126.267C50.8236 126.296 49.7182 126.18 48.6424 125.919C47.4269 125.657 46.1843 125.542 44.9413 125.577Z" fill="white"/>
<g style="mix-blend-mode:multiply" opacity="0.5">
<path d="M51.1836 131.344C50.6425 131.171 50.0856 131.051 49.5209 130.988C48.9526 130.988 47.1444 131.081 46.4775 131.175L45.1436 131.387C45.1764 132.472 45.1999 133.369 45.1999 133.688C45.185 133.94 45.1457 134.19 45.0825 134.435C45.7101 134.75 46.3699 134.995 47.0505 135.168C49.0466 135.736 49.3284 135.637 49.3284 135.637C49.3284 135.637 46.4774 142.574 46.67 145.331C46.8156 147.459 47.1867 159.37 47.351 164.705C48.1542 164.729 48.7084 164.41 49.0841 163.099C49.6008 161.286 49.0841 149.737 49.6008 144.904C50.1174 140.071 51.0709 134.891 51.1554 131.96C51.1585 131.75 51.1679 131.545 51.1836 131.344Z" fill="#1B70E5"/>
</g>
<path d="M44.9413 125.577C44.9413 125.577 45.1996 132.655 45.1996 133.688C45.1996 134.721 43.645 138.779 43.645 140.85C43.645 142.922 45.1996 158.271 45.1996 160.858C45.1996 163.446 44.9413 164.311 46.3222 164.574C47.703 164.837 48.5672 164.916 49.0838 163.103C49.6005 161.291 49.0838 149.741 49.6005 144.908C50.1171 140.075 51.0706 134.895 51.1551 131.964C51.2322 130.045 51.4917 128.137 51.9301 126.267C50.8236 126.296 49.7182 126.18 48.6424 125.919C47.4269 125.657 46.1843 125.542 44.9413 125.577V125.577Z" stroke="#263238" stroke-width="0.183374" stroke-linecap="round" stroke-linejoin="round"/>
<path d="M52.9682 127.216C52.9682 127.216 53.311 133.087 52.9682 134.984C52.6253 136.882 51.7611 138.089 51.6719 140.249C51.5826 142.41 53.0527 159.651 53.0527 161.812C53.0527 163.972 52.0194 164.4 53.9921 165.1C55.9647 165.799 63.1413 163.371 63.1413 162.422C63.1413 161.474 58.4821 161.389 57.9749 160.177C57.4676 158.966 57.4395 143.79 58.299 139.305C59.1585 134.82 60.2246 126.323 60.2246 126.323L52.9682 127.216Z" fill="white"/>
<g style="mix-blend-mode:multiply" opacity="0.5">
<path d="M55.0029 165.208C57.7223 165.17 63.1329 163.24 63.1329 162.413C63.1329 161.474 58.4737 161.38 57.9665 160.168C57.4592 158.957 57.4311 143.781 58.2906 139.296C58.7321 137.009 59.2299 133.688 59.5963 130.978C57.3935 130.978 54.6835 131.077 53.1054 131.128C53.1559 132.415 53.1072 133.705 52.9598 134.984C52.8835 135.388 52.7831 135.786 52.6592 136.177C53.3815 136.596 54.1797 136.867 55.0075 136.976C55.0075 136.976 54.6271 140.681 54.3406 146.289C54.1105 151.371 54.397 162.474 55.0029 165.208Z" fill="#1B70E5"/>
</g>
<path d="M52.9682 127.216C52.9682 127.216 53.311 133.087 52.9682 134.984C52.6253 136.882 51.7611 138.089 51.6719 140.249C51.5826 142.41 53.0527 159.651 53.0527 161.812C53.0527 163.972 52.0194 164.4 53.9921 165.1C55.9647 165.799 63.1413 163.371 63.1413 162.422C63.1413 161.474 58.4821 161.389 57.9749 160.177C57.4676 158.966 57.4395 143.79 58.299 139.305C59.1585 134.82 60.2246 126.323 60.2246 126.323L52.9682 127.216Z" stroke="#263238" stroke-width="0.183374" stroke-linecap="round" stroke-linejoin="round"/>
<path d="M63.151 162.413C63.151 161.474 58.4918 161.38 57.9846 160.168L58.2429 162.155C58.2429 162.155 57.637 162.761 55.6503 162.93C54.761 163.015 53.864 162.959 52.9919 162.766C52.7994 164.118 52.3626 164.517 54.0111 165.09C55.9885 165.795 63.151 163.362 63.151 162.413Z" fill="#1B70E5" stroke="#263238" stroke-width="0.183374" stroke-linecap="round" stroke-linejoin="round"/>
<path d="M49.0848 163.103C49.1932 162.657 49.2577 162.201 49.2773 161.741C47.7415 162.479 46.1211 162.051 45.1959 161.671C45.163 163.634 45.0972 164.343 46.3231 164.573C47.7039 164.855 48.5681 164.916 49.0848 163.103Z" fill="#1B70E5" stroke="#263238" stroke-width="0.183374" stroke-linecap="round" stroke-linejoin="round"/>
<path d="M43.1289 112.543L43.2933 131.697C43.2933 131.697 44.1575 132.472 46.4025 132.819C47.901 133.006 49.4209 132.918 50.8879 132.561L50.8034 133.768C50.8034 133.768 52.1842 134.632 55.3733 134.707C58.5624 134.782 61.3288 132.828 61.3288 132.828L59.8728 112.468C59.8728 112.468 52.884 114.196 48.2202 113.074C43.5563 111.951 43.8193 110.904 43.1289 112.543Z" fill="white"/>
<g style="mix-blend-mode:multiply">
<path d="M56.4348 132.805L56.3596 134.684C58.1385 134.463 59.8406 133.827 61.3288 132.828L59.8728 112.468C59.8728 112.468 52.884 114.196 48.2202 113.074C43.5563 111.951 43.8193 110.913 43.1289 112.553L43.1571 115.483C44.5223 116.279 45.9996 116.865 47.5391 117.221C51.0523 118.099 55.3404 117.55 55.3404 117.55L56.4348 123.482C56.633 124.015 56.7808 124.565 56.8763 125.126C56.9204 125.685 56.8451 126.247 56.6555 126.774C56.6555 126.774 57.5338 129.522 57.5338 130.837C57.5233 131.229 57.4179 131.613 57.2265 131.956C57.0351 132.299 56.7634 132.59 56.4348 132.805Z" fill="#1B70E5"/>
</g>
<g style="mix-blend-mode:multiply" opacity="0.1">
<path d="M56.4348 132.805L56.3596 134.684C58.1385 134.463 59.8406 133.827 61.3288 132.828L59.8728 112.468C59.8728 112.468 52.884 114.196 48.2202 113.074C43.5563 111.951 43.8193 110.913 43.1289 112.553L43.1571 115.483C44.5223 116.279 45.9996 116.865 47.5391 117.221C51.0523 118.099 55.3404 117.55 55.3404 117.55L56.4348 123.482C56.633 124.015 56.7808 124.565 56.8763 125.126C56.9204 125.685 56.8451 126.247 56.6555 126.774C56.6555 126.774 57.5338 129.522 57.5338 130.837C57.5233 131.229 57.4179 131.613 57.2265 131.956C57.0351 132.299 56.7634 132.59 56.4348 132.805Z" fill="black"/>
</g>
<path d="M43.1289 112.543L43.2933 131.697C43.2933 131.697 44.1575 132.472 46.4025 132.819C47.901 133.006 49.4209 132.918 50.8879 132.561L50.8034 133.768C50.8034 133.768 52.1842 134.632 55.3733 134.707C58.5624 134.782 61.3288 132.828 61.3288 132.828L59.8728 112.468C59.8728 112.468 52.884 114.196 48.2202 113.074C43.5563 111.951 43.8193 110.904 43.1289 112.543Z" stroke="#263238" stroke-width="0.183374" stroke-linecap="round" stroke-linejoin="round"/>
<path d="M47.0972 117.808L50.4647 118.414L50.6385 126.873" stroke="#263238" stroke-width="0.183374" stroke-linecap="round" stroke-linejoin="round"/>
<path d="M59.9947 122.909C59.9947 122.909 59.6801 123.435 57.7779 123.646C55.8757 123.858 54.8236 123.543 54.7203 123.966C54.617 124.388 54.927 126.497 54.927 126.497C55.7842 126.762 56.6876 126.842 57.578 126.733C58.4683 126.623 59.3255 126.327 60.0934 125.863" stroke="#263238" stroke-width="0.183374" stroke-linecap="round" stroke-linejoin="round"/>
<path d="M55.1388 127.751C55.1388 127.751 54.8241 132.288 55.3501 132.5" stroke="#263238" stroke-width="0.183374" stroke-linecap="round" stroke-linejoin="round"/>
<path d="M43.73 129.874C43.73 129.874 45.8435 132.091 50.8033 131.039C50.8033 131.039 55.763 134.627 60.4081 130.719" stroke="#263238" stroke-width="0.183374" stroke-linecap="round" stroke-linejoin="round"/>
<path d="M50.6016 128.08V130.509" stroke="#263238" stroke-width="0.183374" stroke-linecap="round" stroke-linejoin="round"/>
<path d="M39.5029 101.412C39.2849 101.462 39.0799 101.557 38.9011 101.691C38.7223 101.826 38.5736 101.996 38.4649 102.192C38.2066 102.793 37.6899 104.606 38.0328 105.122C38.7564 105.916 39.732 106.435 40.7945 106.592C41.6381 106.672 42.4893 106.583 43.2978 106.329L43.7299 102.708C43.7299 102.708 40.2825 102.966 39.5029 101.412Z" fill="white" stroke="#263238" stroke-width="0.183374" stroke-linecap="round" stroke-linejoin="round"/>
<path d="M64.0577 83.7239C64.0577 83.7239 63.4753 82.949 64.0577 82.5592C64.6401 82.1693 66.6878 81.0045 67.2702 81.1971C67.8526 81.3897 69.2147 82.8504 69.412 84.311C69.6092 85.7717 69.9944 86.9365 69.5059 87.3263C69.0174 87.7162 67.2702 89.562 66.6878 89.6747C66.1055 89.7874 65.9082 88.9937 65.9082 88.9937L64.0577 83.7239Z" fill="white" stroke="#263238" stroke-width="0.183374" stroke-linecap="round" stroke-linejoin="round"/>
<path d="M48.1356 85.9503C48.1356 85.9503 43.1289 88.4537 42.6968 89.4917C42.2647 90.5296 38.8173 101.83 39.1602 102.347C39.3766 102.72 39.6759 103.039 40.0351 103.278C40.3942 103.518 40.8035 103.671 41.2314 103.727C41.8491 103.867 42.4776 103.954 43.1101 103.986L42.5089 112.36C42.5089 112.36 44.6647 116.761 51.9024 115.812C59.1401 114.863 61.8266 111.839 61.8266 111.839L59.4125 93.5449C59.4125 93.5449 67.2654 88.8012 67.35 87.7633C67.4345 86.7253 67.0917 84.2266 66.4106 83.5362C66.1818 83.276 65.8722 83.1003 65.5314 83.0373C65.1907 82.9742 64.8387 83.0275 64.5319 83.1886C62.734 83.9654 60.8893 84.6289 59.0086 85.1754C58.6657 85.1754 56.8528 84.8278 56.4207 84.8278C55.9886 84.8278 52.4519 85.3491 51.9306 85.3491C51.4093 85.3491 48.1356 85.9503 48.1356 85.9503Z" fill="#1B70E5" stroke="#263238" stroke-width="0.183374" stroke-linecap="round" stroke-linejoin="round"/>
<path opacity="0.3" d="M48.1356 85.9503C48.1356 85.9503 43.1289 88.4537 42.6968 89.4917C42.2647 90.5296 38.8173 101.83 39.1602 102.347C39.3766 102.72 39.6759 103.039 40.0351 103.278C40.3942 103.518 40.8035 103.671 41.2314 103.727C41.8491 103.867 42.4776 103.954 43.1101 103.986L42.5089 112.36C42.5089 112.36 44.6647 116.761 51.9024 115.812C59.1401 114.863 61.8266 111.839 61.8266 111.839L59.4125 93.5449C59.4125 93.5449 67.2654 88.8012 67.35 87.7633C67.4345 86.7253 67.0917 84.2266 66.4106 83.5362C66.1818 83.276 65.8722 83.1003 65.5314 83.0373C65.1907 82.9742 64.8387 83.0275 64.5319 83.1886C62.734 83.9654 60.8893 84.6289 59.0086 85.1754C58.6657 85.1754 56.8528 84.8278 56.4207 84.8278C55.9886 84.8278 52.4519 85.3491 51.9306 85.3491C51.4093 85.3491 48.1356 85.9503 48.1356 85.9503Z" fill="white" stroke="#263238" stroke-width="0.183374" stroke-linecap="round" stroke-linejoin="round"/>
<path d="M47.7031 86.5702L48.4781 85.1894C48.4781 85.1894 50.7231 84.4097 52.3623 83.9823C54.0015 83.5549 54.9549 83.3765 54.9549 83.3765L55.8003 85.1096L47.7031 86.5702Z" fill="white" stroke="#263238" stroke-width="0.183374" stroke-linecap="round" stroke-linejoin="round"/>
<path d="M60.2148 99.2561L58.1436 111.684C58.1436 111.684 60.6469 111.425 61.854 111.853L60.2148 99.2561Z" fill="white" stroke="#263238" stroke-width="0.183374" stroke-linecap="round" stroke-linejoin="round"/>
<path d="M59.4408 93.5591C59.4408 93.5591 56.6227 99.2609 55.2466 100.844" stroke="#263238" stroke-width="0.183374" stroke-linecap="round" stroke-linejoin="round"/>
<path d="M57.7773 96.8328C57.7773 96.8328 56.7252 102.638 55.6685 104.963" stroke="#263238" stroke-width="0.183374" stroke-linecap="round" stroke-linejoin="round"/>
<path d="M43.105 103.38L43.213 93.667" stroke="#263238" stroke-width="0.183374" stroke-linecap="round" stroke-linejoin="round"/>
<path d="M48.1357 70.3429C47.7632 70.1146 47.3408 69.98 46.9049 69.9506C46.4689 69.9211 46.0323 69.9977 45.6324 70.1738C44.2515 70.775 43.9932 74.4854 44.3361 76.9042C44.6789 79.323 48.1357 81.4788 49.2583 82.4276C50.3808 83.3763 52.02 83.2025 53.4853 82.4276C54.9507 81.6526 57.1112 77.7684 56.4208 74.2271C55.7304 70.6857 55.04 68.7037 52.2783 68.6192C49.5166 68.5346 48.3095 69.1358 48.1357 70.3429Z" fill="white" stroke="#263238" stroke-width="0.183374" stroke-linecap="round" stroke-linejoin="round"/>
<g style="mix-blend-mode:multiply">
<path d="M46.7823 80.2577C46.38 79.8628 46.0108 79.4356 45.6786 78.9802C45.3874 78.5105 45.8523 78.689 46.6649 79.0366C47.4774 79.3841 45.5611 77.5853 45.3874 75.9555C45.2136 74.3257 48.1162 73.9782 49.3984 74.7907C50.1762 75.291 50.8797 75.8981 51.4884 76.5943C51.4884 76.5943 51.4321 73.687 52.5922 73.8608C53.7522 74.0345 53.9307 76.3031 53.9307 76.3031C53.9307 76.3031 55.382 73.3958 55.5558 74.3257C55.7296 75.2557 54.8043 78.7454 54.8043 78.7454C54.8043 78.7454 55.847 75.8992 56.0818 77.0592C56.3167 78.2193 54.5507 81.6902 53.4845 82.4276C52.4184 83.165 50.3283 83.3951 49.4547 82.7564C48.5179 81.9741 47.6257 81.1399 46.7823 80.2577Z" fill="#263238"/>
</g>
<path d="M55.5098 72.2639C55.7472 73.9702 55.4811 75.7088 54.7442 77.2659C53.5089 79.9713 52.9829 80.084 52.9829 80.084" stroke="#263238" stroke-width="0.122249" stroke-miterlimit="10" stroke-linecap="round"/>
<path d="M55.6882 78.1443C55.6882 78.1443 54.5094 80.6148 52.9829 81.432" stroke="#263238" stroke-width="0.122249" stroke-miterlimit="10" stroke-linecap="round"/>
<path d="M48.5684 71.0286C48.5684 71.0286 50.3343 72.3202 50.5128 73.9124" stroke="#263238" stroke-width="0.122249" stroke-miterlimit="10" stroke-linecap="round"/>
<path d="M44.8613 76.8525C45.477 78.2365 46.5591 79.3602 47.9189 80.0275C50.1546 81.089 51.0375 79.8538 51.0375 79.8538" stroke="#263238" stroke-width="0.122249" stroke-miterlimit="10" stroke-linecap="round"/>
<path d="M48.7456 81.4978C49.8892 81.9794 51.1746 82.0013 52.3339 81.5589" stroke="#263238" stroke-width="0.122249" stroke-miterlimit="10" stroke-linecap="round"/>
<path d="M20.7749 156.434C20.7749 156.434 22.5932 156.829 22.2174 157.492C21.8415 158.154 21.4327 158.046 21.4327 158.046C21.2977 157.478 21.0758 156.934 20.7749 156.434Z" fill="white" stroke="#263238" stroke-width="0.183374" stroke-linecap="round" stroke-linejoin="round"/>
<path d="M15.3365 159.248C15.3365 159.248 14.2985 159.999 15.0547 160.849C15.8109 161.699 17.4031 161.789 18.5397 161.037C19.6763 160.286 21.6489 159.06 22.2971 158.304C22.9452 157.547 22.0153 156.514 20.7894 156.326C19.5636 156.138 15.3365 159.248 15.3365 159.248Z" fill="white" stroke="#263238" stroke-width="0.183374" stroke-linecap="round" stroke-linejoin="round"/>
<path d="M13.6028 128.348C13.9406 129.973 13.8761 131.656 13.4149 133.251C12.6588 136.172 12.5648 137.478 12.8466 140.226C13.1284 142.973 15.768 155.302 15.4862 156.998C15.2044 158.693 15.0165 159.168 15.3923 160.107C15.768 161.046 17.0878 161.145 18.0318 160.295C18.9759 159.445 19.8213 159.168 20.1031 158.13C20.3849 157.092 19.2577 156.251 18.9759 155.312C18.6941 154.372 18.1258 141.081 18.1258 137.408C18.2026 134.474 18.4535 131.547 18.8772 128.644L13.6028 128.348Z" fill="white"/>
<g style="mix-blend-mode:multiply" opacity="0.5">
<path d="M18.1255 137.398C18.2023 134.465 18.4533 131.538 18.877 128.634L13.6025 128.348C13.769 129.069 13.8354 129.811 13.7998 130.55C14.1427 130.649 14.5184 130.752 14.8801 130.832C15.4288 130.974 15.9907 131.059 16.5568 131.086C16.5568 131.086 15.8852 134.19 15.4671 136.792C15.0491 139.394 15.2981 146.36 16.4065 150.385C17.5149 154.41 17.1627 156.763 17.4163 157.768C17.6699 158.773 17.731 159.985 17.0171 160.83C17.4016 160.743 17.7574 160.559 18.0504 160.295C18.9897 159.449 19.8398 159.168 20.1216 158.13C20.4034 157.092 19.2762 156.251 18.9944 155.312C18.7126 154.372 18.1255 141.071 18.1255 137.398Z" fill="#1B70E5"/>
</g>
<path d="M13.6028 128.348C13.9406 129.973 13.8761 131.656 13.4149 133.251C12.6588 136.172 12.5648 137.478 12.8466 140.226C13.1284 142.973 15.768 155.302 15.4862 156.998C15.2044 158.693 15.0165 159.168 15.3923 160.107C15.768 161.046 17.0878 161.145 18.0318 160.295C18.9759 159.445 19.8213 159.168 20.1031 158.13C20.3849 157.092 19.2577 156.251 18.9759 155.312C18.6941 154.372 18.1258 141.081 18.1258 137.408C18.2026 134.474 18.4535 131.547 18.8772 128.644L13.6028 128.348Z" stroke="#263238" stroke-width="0.183374" stroke-linecap="round" stroke-linejoin="round"/>
<path d="M19.1636 155.725C19.5503 155.768 19.9235 155.892 20.2587 156.09C20.5938 156.287 20.8833 156.554 21.108 156.871C21.7656 157.909 21.6106 158.05 21.6106 158.05L19.7319 159.182C19.7319 159.182 19.4454 158.459 19.1636 155.725Z" fill="#1B70E5" stroke="#263238" stroke-width="0.183374" stroke-linecap="round" stroke-linejoin="round"/>
<path d="M26.9743 162.099C26.9743 162.099 26.3167 162.385 27.0682 163.038C27.8197 163.691 29.8017 163.226 32.2346 162.756C34.6675 162.286 36.6637 161.248 36.7576 160.586C36.8515 159.924 34.6863 159.929 34.6863 159.929L26.9743 162.099Z" fill="white" stroke="#263238" stroke-width="0.183374" stroke-linecap="round" stroke-linejoin="round"/>
<path d="M22.9305 129.668C22.9305 129.668 23.3062 131.175 22.6487 134.097C21.9912 137.018 21.7094 137.492 22.179 140.789C22.6487 144.087 26.6926 158.614 26.8758 159.464C27.0589 160.314 26.8758 161.441 26.9697 162.099C27.0636 162.756 28.7592 162.568 29.7032 162.385C30.6472 162.202 34.1322 161.535 34.7945 161.159C35.4567 160.783 36.3961 160.497 35.3581 160.027C34.3201 159.558 31.131 159.558 30.5533 158.801C29.9756 158.045 28.9517 155.786 28.9517 154.574C28.9517 153.363 27.073 139.672 27.3548 136.938C27.6366 134.205 28.111 128.554 28.111 128.554L22.9305 129.668Z" fill="white"/>
<g style="mix-blend-mode:multiply" opacity="0.5">
<path d="M35.3622 160.027C34.3242 159.558 31.1351 159.558 30.5574 158.801C29.9797 158.045 28.9559 155.786 28.9559 154.574C28.9559 153.363 27.0772 139.672 27.359 136.938C27.6408 134.205 28.1151 128.554 28.1151 128.554L22.9487 129.682C23.0977 130.542 23.1072 131.42 22.9769 132.284C23.19 132.33 23.4071 132.355 23.6251 132.359C24.6302 132.359 26.476 132.274 26.476 132.274C26.476 132.274 24.7992 137.225 24.8838 140.667C24.9683 144.11 28.242 158.045 28.5754 159.21C28.8675 160.104 29.0088 161.041 28.9934 161.981C28.9916 162.162 28.9791 162.342 28.9559 162.521C29.2377 162.488 29.5007 162.441 29.7261 162.399C30.6655 162.207 34.1552 161.549 34.8174 161.173C35.4796 160.798 36.4002 160.497 35.3622 160.027Z" fill="#1B70E5"/>
</g>
<path d="M22.9305 129.668C22.9305 129.668 23.3062 131.175 22.6487 134.097C21.9912 137.018 21.7094 137.492 22.179 140.789C22.6487 144.087 26.6926 158.614 26.8758 159.464C27.0589 160.314 26.8758 161.441 26.9697 162.099C27.0636 162.756 28.7592 162.568 29.7032 162.385C30.6472 162.202 34.1322 161.535 34.7945 161.159C35.4567 160.783 36.3961 160.497 35.3581 160.027C34.3201 159.558 31.131 159.558 30.5533 158.801C29.9756 158.045 28.9517 155.786 28.9517 154.574C28.9517 153.363 27.073 139.672 27.3548 136.938C27.6366 134.205 28.111 128.554 28.111 128.554L22.9305 129.668Z" stroke="#263238" stroke-width="0.183374" stroke-linecap="round" stroke-linejoin="round"/>
<path d="M34.3343 159.652C34.3343 159.652 33.24 158.524 31.1499 159.154C31.1499 159.154 31.7934 159.271 31.7934 160.309C31.7934 161.347 31.7934 162.404 31.7934 162.404L34.0431 161.817C34.2957 161.523 34.4577 161.162 34.5094 160.777C34.5611 160.393 34.5003 160.002 34.3343 159.652Z" fill="#1B70E5" stroke="#263238" stroke-width="0.183374" stroke-linecap="round" stroke-linejoin="round"/>
<path d="M10.6625 95.0008C10.6625 95.0008 9.33329 99.4298 9.55404 101.205C9.77478 102.981 9.91099 105.207 10.8832 105.207C11.8554 105.207 13.875 96.1233 13.9878 95.4564C14.1005 94.7894 10.6625 95.0008 10.6625 95.0008Z" fill="white" stroke="#263238" stroke-width="0.183374" stroke-linecap="round" stroke-linejoin="round"/>
<path d="M12.7533 89.7124L10.2734 95.6632L15.4962 97.6405L15.2238 91.6991L12.7533 89.7124Z" fill="white" stroke="#263238" stroke-width="0.183374" stroke-linecap="round" stroke-linejoin="round"/>
<path d="M19.164 81.9862C19.2672 82.9012 19.2035 83.8274 18.9761 84.7197C18.5957 85.7529 12.7529 88.5804 12.7529 89.7123C12.7529 90.8442 14.8289 104.883 14.8289 104.883C14.8289 104.883 16.2379 106.203 19.7276 106.109C23.2173 106.015 24.0627 104.131 24.0627 104.131C24.0627 104.131 25.9414 90.3698 24.9128 89.0547C23.8842 87.7397 21.6251 85.767 21.3292 85.2974C21.0333 84.8277 21.7988 81.6198 21.7988 81.6198C21.7988 81.6198 21.4231 80.6805 19.6337 80.5865C17.8442 80.4926 19.164 81.9862 19.164 81.9862Z" fill="white" stroke="#263238" stroke-width="0.183374" stroke-linecap="round" stroke-linejoin="round"/>
<path d="M22.1232 86.1474C21.8357 85.8813 21.5702 85.5922 21.3294 85.2832C21.0476 84.8135 21.7991 81.6056 21.7991 81.6056C21.7991 81.6056 21.4234 80.6663 19.6339 80.5723C17.8445 80.4784 19.1642 81.9814 19.1642 81.9814C19.2674 82.8964 19.2038 83.8226 18.9764 84.7149C18.8637 85.0155 18.286 85.471 17.5298 85.9877C18.2327 86.5565 19.1056 86.8739 20.0097 86.8895C20.7628 86.8121 21.487 86.5578 22.1232 86.1474Z" fill="white" stroke="#263238" stroke-width="0.183374" stroke-linecap="round" stroke-linejoin="round"/>
<path d="M23.4048 98.1007C23.6559 99.5852 24.0653 101.039 24.6259 102.436C25.5653 104.784 27.9137 108.654 28.6792 107.241C29.4448 105.827 29.4354 102.544 29.055 100.454C28.6745 98.3637 27.9277 96.1187 27.9277 95.0854C27.9277 94.0521 28.2095 93.0094 27.9277 92.164C27.6459 91.3186 25.5794 90.3699 25.5794 90.3699L23.4048 98.1007Z" fill="white"/>
<g style="mix-blend-mode:multiply" opacity="0.5">
<path d="M28.6982 107.241C29.4543 105.832 29.4543 102.544 29.0739 100.454C28.6935 98.3637 27.9467 96.1187 27.9467 95.0854C27.9467 94.0521 28.2285 93.0094 27.9467 92.164C27.6649 91.3186 25.5983 90.3699 25.5983 90.3699L23.4331 98.1007C23.5473 98.8031 23.7042 99.498 23.9028 100.181L26.6034 98.8804C26.6034 98.8804 28.3506 102.943 28.5338 105.094C28.594 105.917 28.5162 106.744 28.3036 107.541C28.3909 107.533 28.4741 107.5 28.5438 107.447C28.6135 107.394 28.667 107.322 28.6982 107.241Z" fill="#1B70E5"/>
</g>
<path d="M23.4048 98.1007C23.6559 99.5852 24.0653 101.039 24.6259 102.436C25.5653 104.784 27.9137 108.654 28.6792 107.241C29.4448 105.827 29.4354 102.544 29.055 100.454C28.6745 98.3637 27.9277 96.1187 27.9277 95.0854C27.9277 94.0521 28.2095 93.0094 27.9277 92.164C27.6459 91.3186 25.5794 90.3699 25.5794 90.3699L23.4048 98.1007Z" stroke="#263238" stroke-width="0.183374" stroke-linecap="round" stroke-linejoin="round"/>
<path d="M26.8901 95.8369C26.8901 95.8369 28.2099 99.8902 28.6796 101.304L26.8901 95.8369Z" fill="white"/>
<path d="M26.8901 95.8369C26.8901 95.8369 28.2099 99.8902 28.6796 101.304" stroke="#263238" stroke-width="0.183374" stroke-linecap="round" stroke-linejoin="round"/>
<path d="M24.9127 89.0549C24.9127 89.0549 25.1945 89.1489 25.5702 90.37C25.9459 91.5912 27.3784 95.9169 27.3784 95.9169L26.2653 97.0394C25.5806 97.7343 24.7875 98.3133 23.9169 98.7537L23.3299 99.0402L22.2026 95.5552" fill="white"/>
<path d="M24.9127 89.0549C24.9127 89.0549 25.1945 89.1489 25.5702 90.37C25.9459 91.5912 27.3784 95.9169 27.3784 95.9169L26.2653 97.0394C25.5806 97.7343 24.7875 98.3133 23.9169 98.7537L23.3299 99.0402L22.2026 95.5552" stroke="#263238" stroke-width="0.183374" stroke-linecap="round" stroke-linejoin="round"/>
<path d="M25.9456 74.9645C25.9456 74.9645 26.791 78.9333 26.791 80.5396C26.791 82.1458 24.0904 84.931 23.245 84.8465C22.3996 84.7619 20.4551 82.4981 19.7788 80.7086C19.1025 78.9192 21.5542 75.979 22.315 75.4718C23.0759 74.9645 25.5229 74.5418 25.9456 74.9645Z" fill="white"/>
<g style="mix-blend-mode:multiply" opacity="0.5">
<path d="M26.5372 78.1677C26.2883 76.5802 25.9454 74.9645 25.9454 74.9645C25.5227 74.5418 23.0757 74.9645 22.3149 75.4718C21.6667 75.9039 19.788 78.1254 19.6753 79.8726C21.2205 79.8444 23.4937 79.464 26.5372 78.1677Z" fill="#1B70E5"/>
</g>
<path d="M25.9456 74.9645C25.9456 74.9645 26.791 78.9333 26.791 80.5396C26.791 82.1458 24.0904 84.931 23.245 84.8465C22.3996 84.7619 20.4551 82.4981 19.7788 80.7086C19.1025 78.9192 21.5542 75.979 22.315 75.4718C23.0759 74.9645 25.5229 74.5418 25.9456 74.9645Z" stroke="#263238" stroke-width="0.183374" stroke-linecap="round" stroke-linejoin="round"/>
<path d="M24.6215 78.2057C24.6215 78.5393 24.4759 78.8118 24.2973 78.8118C24.1188 78.8118 23.9731 78.5393 23.9731 78.2057C23.9731 77.8721 24.1188 77.6042 24.2973 77.6042C24.4759 77.6042 24.6215 77.8721 24.6215 78.2057Z" fill="#263238"/>
<path d="M26.2508 77.6937C26.2508 78.0273 26.1051 78.2998 25.9219 78.2998C25.7386 78.2998 25.5977 78.0273 25.5977 77.6937C25.5977 77.3601 25.7433 77.0923 25.9219 77.0923C26.1004 77.0923 26.2508 77.3601 26.2508 77.6937Z" fill="#263238"/>
<path d="M25.4994 77.374C25.4539 78.0107 25.5386 78.6499 25.7483 79.2527C26.1006 80.1545 26.3495 80.4081 26.1006 80.6617C25.8517 80.9154 25.3491 80.7604 25.3491 80.7604" stroke="#263238" stroke-width="0.183374" stroke-linecap="round" stroke-linejoin="round"/>
<path d="M25.1471 82.1322C25.1471 82.1322 24.0571 82.3013 23.8315 81.3381" stroke="#263238" stroke-width="0.183374" stroke-linecap="round" stroke-linejoin="round"/>
<path d="M23.5977 77.2757C23.612 77.1577 23.6526 77.0444 23.7166 76.9442C23.7806 76.844 23.8662 76.7594 23.9672 76.6967C24.0683 76.6341 24.1821 76.5949 24.3003 76.582C24.4185 76.5692 24.538 76.5831 24.6501 76.6226" stroke="#263238" stroke-width="0.183374" stroke-linecap="round" stroke-linejoin="round"/>
<path d="M25.5513 76.557C25.5513 76.557 25.852 75.9556 26.1527 76.308" stroke="#263238" stroke-width="0.183374" stroke-linecap="round" stroke-linejoin="round"/>
<path d="M23.4142 75.4719C21.4697 71.9258 16.8387 73.9501 14.4575 76.5709C12.0762 79.1917 11.6019 82.1037 12.87 83.7945C14.1381 85.4853 16.7119 86.838 19.7742 84.5413C21.6153 83.1604 22.5922 80.1216 23.0337 77.9377C23.076 79.1306 23.0009 80.9295 22.3198 82.005C22.3111 82.0186 22.3052 82.0337 22.3024 82.0496C22.2996 82.0654 22.3 82.0817 22.3035 82.0974C22.3069 82.1131 22.3135 82.128 22.3228 82.1411C22.332 82.1543 22.3438 82.1655 22.3574 82.1741C22.3791 82.1788 22.4015 82.1788 22.4232 82.1741C22.4435 82.173 22.4633 82.1674 22.4812 82.1577C22.4991 82.1479 22.5146 82.1343 22.5265 82.1178C23.4658 80.596 23.3061 77.8343 23.2216 76.9513C23.3578 76.0871 23.4142 75.4719 23.4142 75.4719Z" fill="#263238"/>
<path d="M14.8291 104.883C14.8291 104.883 11.1515 111.388 10.6819 114.403C10.2122 117.418 10.494 127.972 10.494 127.972C10.494 127.972 11.5273 129.01 14.7211 129.198C17.9148 129.386 19.5258 128.916 19.5258 128.916L19.9016 129.954C19.9016 129.954 23.1893 130.987 26.214 130.236C29.2387 129.484 30.3612 128.446 30.3612 128.446C30.3612 128.446 30.3612 120.434 27.6277 113.459C24.8942 106.484 24.0488 104.131 24.0488 104.131C24.0488 104.131 20.2914 107.053 14.8291 104.883Z" fill="#1B70E5" stroke="#263238" stroke-width="0.183374" stroke-linecap="round" stroke-linejoin="round"/>
<path opacity="0.2" d="M14.8291 104.883C14.8291 104.883 11.1515 111.388 10.6819 114.403C10.2122 117.418 10.494 127.972 10.494 127.972C10.494 127.972 11.5273 129.01 14.7211 129.198C17.9148 129.386 19.5258 128.916 19.5258 128.916L19.9016 129.954C19.9016 129.954 23.1893 130.987 26.214 130.236C29.2387 129.484 30.3612 128.446 30.3612 128.446C30.3612 128.446 30.3612 120.434 27.6277 113.459C24.8942 106.484 24.0488 104.131 24.0488 104.131C24.0488 104.131 20.2914 107.053 14.8291 104.883Z" fill="black" stroke="#263238" stroke-width="0.183374" stroke-linecap="round" stroke-linejoin="round"/>
<path d="M10.3813 125.901C10.3813 125.901 14.9043 128.54 19.803 126.84" stroke="#263238" stroke-width="0.183374" stroke-linecap="round" stroke-linejoin="round"/>
<path d="M16.3359 116.662L18.8769 117.888L19.9149 127.878" stroke="#263238" stroke-width="0.183374" stroke-linecap="round" stroke-linejoin="round"/>
<path d="M20.0083 126.464C21.4995 127.219 23.1614 127.573 24.8306 127.49C26.4999 127.408 28.119 126.892 29.5286 125.995" stroke="#263238" stroke-width="0.183374" stroke-linecap="round" stroke-linejoin="round"/>
<path d="M24.335 109.105C26.5454 113.9 27.7719 119.088 27.9421 124.365" stroke="#263238" stroke-width="0.122249" stroke-miterlimit="10" stroke-linecap="round"/>
<path d="M15.7683 87.2607C15.7683 87.2607 13.6031 92.258 12.9502 94.2353C12.2974 96.2127 12.1987 96.5837 12.1987 96.5837L13.8943 96.3958L17.5389 85.9832C17.5389 85.9832 16.6184 86.6031 15.7683 87.2607Z" fill="#1B70E5" stroke="#263238" stroke-width="0.183374" stroke-linecap="round" stroke-linejoin="round"/>
<path d="M22.461 86.6033C22.461 86.6033 20.1972 90.1775 19.6336 91.5865C19.07 92.9955 18.4077 94.9823 18.4077 94.9823L20.5776 94.8883C20.5776 94.8883 21.6109 90.5532 23.6869 87.6319L22.461 86.6033Z" fill="#1B70E5" stroke="#263238" stroke-width="0.183374" stroke-linecap="round" stroke-linejoin="round"/>
<path d="M19.351 93.7657C19.351 93.7657 14.7341 93.8596 13.4143 94.6111C12.0945 95.3625 11.4323 96.7809 11.1505 99.0401C10.8687 101.299 10.0186 105.827 10.0186 108.185C10.0186 110.542 13.3063 112.233 15.8613 112.412C18.4163 112.59 21.704 111.942 22.9064 110.336C24.1088 108.729 24.0383 107.133 23.6626 105.437C23.2868 103.742 21.5866 95.4471 21.023 94.3152C20.9503 94.1684 20.849 94.0376 20.7253 93.9304C20.6015 93.8231 20.4576 93.7416 20.302 93.6904C20.1464 93.6393 19.9822 93.6196 19.8189 93.6325C19.6557 93.6454 19.4966 93.6907 19.351 93.7657Z" fill="#1B70E5" stroke="#263238" stroke-width="0.183374" stroke-linecap="round" stroke-linejoin="round"/>
<path d="M13.4148 94.6111C13.4148 94.6111 12.189 99.9841 12.189 102.342C12.189 104.7 13.1283 105.63 15.9464 105.733C18.7644 105.836 20.6431 104.883 20.6431 101.506C20.6431 98.1289 20.6431 94.7191 19.9809 94.2494C19.3186 93.7797 14.1663 94.1414 13.4148 94.6111Z" fill="#1B70E5" stroke="#263238" stroke-width="0.183374" stroke-linecap="round" stroke-linejoin="round"/>
<path d="M14.8281 103.093C14.8281 103.093 14.6402 104.883 14.3584 107.428C14.0766 109.974 14.7764 113.943 14.7764 113.943L16.1291 114.844L17.2798 113.741C17.2798 113.741 17.1858 112.045 17.1858 108.842C17.1878 106.888 17.3148 104.937 17.5663 102.999L14.8281 103.093Z" fill="#1B70E5" stroke="#263238" stroke-width="0.183374" stroke-linecap="round" stroke-linejoin="round"/>
<path opacity="0.1" d="M14.8281 103.093C14.8281 103.093 14.6402 104.883 14.3584 107.428C14.0766 109.974 14.7764 113.943 14.7764 113.943L16.1291 114.844L17.2798 113.741C17.2798 113.741 17.1858 112.045 17.1858 108.842C17.1878 106.888 17.3148 104.937 17.5663 102.999L14.8281 103.093Z" fill="black" stroke="#263238" stroke-width="0.183374" stroke-linecap="round" stroke-linejoin="round"/>
<path d="M14.354 107.428C14.354 107.428 13.9783 107.053 13.8843 107.71C13.7904 108.368 13.7904 108.56 13.6965 109.218C13.6025 109.875 13.8843 109.974 14.7344 109.974C15.5845 109.974 17.7497 110.256 17.9376 109.598C18.1255 108.941 17.2754 106.78 17.2754 106.78L17.1814 108.852L14.2319 108.739L14.354 107.428Z" fill="white" stroke="#263238" stroke-width="0.183374" stroke-linecap="round" stroke-linejoin="round"/>
<path d="M15.4907 109.679C15.4632 109.679 15.4358 109.674 15.4102 109.664C15.3845 109.654 15.3612 109.639 15.3415 109.62C15.3218 109.601 15.3062 109.578 15.2955 109.552C15.2848 109.527 15.2793 109.5 15.2793 109.472C15.2793 109.002 15.3639 108.119 15.3686 108.062C15.3703 108.035 15.3776 108.008 15.39 107.984C15.4025 107.959 15.4198 107.937 15.4409 107.92C15.462 107.902 15.4865 107.889 15.5128 107.881C15.5391 107.874 15.5668 107.871 15.5941 107.874C15.6485 107.88 15.6985 107.907 15.7336 107.949C15.7687 107.991 15.786 108.045 15.782 108.1C15.782 108.1 15.6975 109.012 15.6975 109.453C15.7001 109.482 15.6967 109.511 15.6875 109.538C15.6783 109.565 15.6634 109.59 15.644 109.612C15.6245 109.633 15.6008 109.65 15.5744 109.661C15.5481 109.673 15.5195 109.679 15.4907 109.679Z" fill="white" stroke="#263238" stroke-width="0.122249" stroke-linecap="round" stroke-linejoin="round"/>
<path d="M16.4021 72.4282C14.3903 73.6791 12.4448 75.0336 10.5734 76.4862C8.29079 78.3649 7.44068 79.3418 7.52522 80.0181C7.60976 80.6945 12.7715 79.7786 16.233 78.6091C19.6945 77.4396 23.2452 76.4157 26.8758 75.2322C30.5064 74.0486 33.6344 72.5268 34.3906 71.2634C35.1467 70 32.9534 70.2489 27.632 70.3241C22.3106 70.3992 18.9383 71.2493 16.4021 72.4282Z" fill="#1B70E5" stroke="#263238" stroke-width="0.183374" stroke-linecap="round" stroke-linejoin="round"/>
<path opacity="0.4" d="M16.4021 72.4282C14.3903 73.6791 12.4448 75.0336 10.5734 76.4862C8.29079 78.3649 7.44068 79.3418 7.52522 80.0181C7.60976 80.6945 12.7715 79.7786 16.233 78.6091C19.6945 77.4396 23.2452 76.4157 26.8758 75.2322C30.5064 74.0486 33.6344 72.5268 34.3906 71.2634C35.1467 70 32.9534 70.2489 27.632 70.3241C22.3106 70.3992 18.9383 71.2493 16.4021 72.4282Z" fill="white" stroke="#263238" stroke-width="0.183374" stroke-linecap="round" stroke-linejoin="round"/>
<path d="M14.5413 76.2327C14.5413 76.2327 13.6958 72.4283 14.4567 70.6577C15.2176 68.887 19.0173 67.4451 21.0322 67.1915C23.0471 66.9379 24.3199 67.9523 24.7473 68.7978C25.1747 69.6432 26.626 71.9258 26.5226 72.7665C26.4193 73.6072 26.0999 73.9501 21.6239 75.6409C17.148 77.3317 15.4712 77.1627 14.5413 76.2327Z" fill="#1B70E5" stroke="#263238" stroke-width="0.183374" stroke-linecap="round" stroke-linejoin="round"/>
<path opacity="0.4" d="M14.5413 76.2327C14.5413 76.2327 13.6958 72.4283 14.4567 70.6577C15.2176 68.887 19.0173 67.4451 21.0322 67.1915C23.0471 66.9379 24.3199 67.9523 24.7473 68.7978C25.1747 69.6432 26.626 71.9258 26.5226 72.7665C26.4193 73.6072 26.0999 73.9501 21.6239 75.6409C17.148 77.3317 15.4712 77.1627 14.5413 76.2327Z" fill="white" stroke="#263238" stroke-width="0.183374" stroke-linecap="round" stroke-linejoin="round"/>
<path d="M17.6274 72.7994C17.8154 72.7196 18.008 72.6303 18.2148 72.5222" stroke="#263238" stroke-width="0.122249" stroke-miterlimit="10" stroke-linecap="round"/>
<path d="M14.6592 73.0577C14.6592 73.0577 15.6455 73.5273 17.3316 72.9355" stroke="#263238" stroke-width="0.122249" stroke-miterlimit="10" stroke-linecap="round"/>
<path d="M17.8022 74.0113C18.2309 73.8621 18.6421 73.6668 19.0286 73.4287" stroke="#263238" stroke-width="0.122249" stroke-miterlimit="10" stroke-linecap="round"/>
<path d="M15.4341 74.2977C16.0868 74.3647 16.7463 74.3105 17.3793 74.1379" stroke="#263238" stroke-width="0.122249" stroke-miterlimit="10" stroke-linecap="round"/>
<path d="M14.7344 74.1663C14.8448 74.2018 14.958 74.2285 15.0727 74.2461" stroke="#263238" stroke-width="0.122249" stroke-miterlimit="10" stroke-linecap="round"/>
<path d="M15.0308 75.5751C15.0308 75.5751 15.8433 76.0918 17.6234 75.5" stroke="#263238" stroke-width="0.122249" stroke-miterlimit="10" stroke-linecap="round"/>
</svg>
